<svg id="Layer_1" data-name="Layer 1" xmlns="http://www.w3.org/2000/svg" viewBox="0 0 96 96"><defs><style>.cls-1{fill:#e6e7e8;}.cls-2{fill:#3867ab;}</style></defs><path class="cls-1" d="M5,0A5,5,0,0,0,0,5V91a5,5,0,0,0,5,5H91a5,5,0,0,0,5-5V5a5,5,0,0,0-5-5H5Z"/><path class="cls-2" d="M7.49,53.93a1.08,1.08,0,0,1,1.2-1.25H14c.72,0,1.1.38,1.25,1.15.38,1.73,1.82,2.59,4.65,2.59,3.12,0,4.13-1.2,4.13-2.59,0-2-2.4-2.83-5.33-3.84-4.75-1.63-10.75-3.6-10.75-10.94C7.92,32.33,13.39,29,19.1,29s11,3,11.57,10a1.08,1.08,0,0,1-1.2,1.25H24.19c-.72,0-1.1-.39-1.24-1.15-.39-1.78-1.64-2.6-3.85-2.6-2.4,0-3.5,1.2-3.5,2.6,0,2,2,3,4.75,4,4.8,1.68,11.33,3.41,11.33,10.8,0,6.72-5.37,10.08-11.81,10.08S8.06,60.89,7.49,53.93Z"/><path class="cls-2" d="M60.48,30.84V62a1.09,1.09,0,0,1-1.2,1.2H54A1.09,1.09,0,0,1,52.8,62V49.66H43.2V62a1.09,1.09,0,0,1-1.2,1.2H36.72a1.09,1.09,0,0,1-1.2-1.2V30.84a1.09,1.09,0,0,1,1.2-1.2H42a1.09,1.09,0,0,1,1.2,1.2V42.26h9.6V30.84a1.09,1.09,0,0,1,1.2-1.2h5.28A1.09,1.09,0,0,1,60.48,30.84Z"/><path class="cls-2" d="M64.37,53.93a1.08,1.08,0,0,1,1.2-1.25h5.28c.72,0,1.1.38,1.25,1.15.38,1.73,1.82,2.59,4.65,2.59,3.12,0,4.13-1.2,4.13-2.59,0-2-2.4-2.83-5.33-3.84C70.8,48.36,64.8,46.39,64.8,39.05,64.8,32.33,70.27,29,76,29s11,3,11.57,10a1.08,1.08,0,0,1-1.2,1.25H81.07c-.72,0-1.1-.39-1.24-1.15-.39-1.78-1.64-2.6-3.85-2.6-2.4,0-3.5,1.2-3.5,2.6,0,2,2,3,4.75,4,4.8,1.68,11.33,3.41,11.33,10.8,0,6.72-5.37,10.08-11.81,10.08S64.94,60.89,64.37,53.93Z"/></svg>