<svg id="Layer_1" data-name="Layer 1" xmlns="http://www.w3.org/2000/svg" viewBox="0 0 149.47 21.19"><defs><style>.cls-1{fill:none;}.cls-2{fill:#3867ab;}</style></defs><path class="cls-1" d="M5-36.8a5,5,0,0,0-5,5V16a5,5,0,0,0,5,5H144.47a5,5,0,0,0,5-5V-31.8a5,5,0,0,0-5-5H5Z"/><path class="cls-2" d="M4.09,12.81a.4.4,0,0,1,.45-.46h2a.44.44,0,0,1,.47.43c.15.65.69,1,1.77,1s1.56-.45,1.56-1c0-.74-.91-1.06-2-1.44C6.52,10.73,4.25,10,4.25,7.23c0-2.52,2.07-3.78,4.24-3.78s4.16,1.14,4.38,3.75a.41.41,0,0,1-.45.47h-2c-.28,0-.42-.15-.48-.44-.14-.66-.62-1-1.45-1s-1.33.45-1.33,1c0,.76.75,1.12,1.8,1.5,1.82.63,4.29,1.28,4.29,4,0,2.52-2,3.78-4.47,3.78S4.3,15.43,4.09,12.81Z"/><path class="cls-2" d="M19.44,7.76V9.45A.41.41,0,0,1,19,9.9H18v6a.41.41,0,0,1-.45.45H15.71a.41.41,0,0,1-.45-.45v-6h-1a.41.41,0,0,1-.46-.45V7.76a.41.41,0,0,1,.46-.45h1V4.87a.41.41,0,0,1,.45-.45h1.82a.41.41,0,0,1,.45.45V7.31h1A.41.41,0,0,1,19.44,7.76Z"/><path class="cls-2" d="M28.48,7.76v8.1a.41.41,0,0,1-.45.45H26.21a.41.41,0,0,1-.46-.45v-.37a2.71,2.71,0,0,1-2.36,1.07c-1.69,0-2.91-1.3-2.91-3.55V7.76a.41.41,0,0,1,.45-.45h1.82a.41.41,0,0,1,.46.45v5a1.15,1.15,0,0,0,1.21,1.3c.82,0,1.33-.45,1.33-1.52V7.76a.41.41,0,0,1,.46-.45H28A.41.41,0,0,1,28.48,7.76Z"/><path class="cls-2" d="M39.81,4.15V15.86a.41.41,0,0,1-.45.45H37.54a.41.41,0,0,1-.46-.45v-.39a3.44,3.44,0,0,1-2.71,1.09A4.53,4.53,0,0,1,30,11.81a4.54,4.54,0,0,1,4.34-4.76,3.41,3.41,0,0,1,2.71,1.1v-4a.42.42,0,0,1,.46-.45h1.82A.41.41,0,0,1,39.81,4.15Zm-2.73,7.66a2.16,2.16,0,1,0-4.32,0,2.16,2.16,0,1,0,4.32,0Z"/><path class="cls-2" d="M50.82,11.81c0,.23,0,.45,0,.66a.43.43,0,0,1-.49.42H44.22a2.06,2.06,0,0,0,2.13,1.49,2.18,2.18,0,0,0,1.34-.45.86.86,0,0,1,.57-.23l1.74,0c.33,0,.51.21.37.5a4.18,4.18,0,0,1-4.06,2.38,4.65,4.65,0,0,1-5-4.75,4.67,4.67,0,0,1,4.88-4.76A4.54,4.54,0,0,1,50.82,11.81Zm-2.72-1a1.81,1.81,0,0,0-1.88-1.38,1.93,1.93,0,0,0-2,1.38Z"/><path class="cls-2" d="M60.33,10.6v5.26a.41.41,0,0,1-.45.45H58.06a.41.41,0,0,1-.45-.45v-5a1.14,1.14,0,0,0-1.22-1.29c-.82,0-1.33.45-1.33,1.51v4.81a.41.41,0,0,1-.45.45H52.79a.41.41,0,0,1-.46-.45V7.76a.41.41,0,0,1,.46-.45h1.82a.41.41,0,0,1,.45.45v.37a2.7,2.7,0,0,1,2.36-1.08C59.12,7.05,60.33,8.35,60.33,10.6Z"/><path class="cls-2" d="M67,7.76V9.45a.41.41,0,0,1-.45.45h-1v6a.41.41,0,0,1-.46.45H63.28a.41.41,0,0,1-.45-.45v-6h-1a.41.41,0,0,1-.46-.45V7.76a.41.41,0,0,1,.46-.45h1V4.87a.41.41,0,0,1,.45-.45H65.1a.42.42,0,0,1,.46.45V7.31h1A.41.41,0,0,1,67,7.76Z"/><path class="cls-2" d="M82.38,4.15V15.86a.41.41,0,0,1-.45.45h-2a.41.41,0,0,1-.46-.45V11.21H75.84v4.65a.41.41,0,0,1-.46.45h-2a.41.41,0,0,1-.45-.45V4.15a.41.41,0,0,1,.45-.45h2a.42.42,0,0,1,.46.45V8.44h3.63V4.15a.42.42,0,0,1,.46-.45h2A.41.41,0,0,1,82.38,4.15Z"/><path class="cls-2" d="M93.48,11.81c0,.23,0,.45,0,.66a.45.45,0,0,1-.5.42H86.88A2.06,2.06,0,0,0,89,14.38a2.16,2.16,0,0,0,1.34-.45.86.86,0,0,1,.57-.23l1.74,0c.33,0,.51.21.37.5A4.17,4.17,0,0,1,89,16.56a4.65,4.65,0,0,1-5-4.75A4.67,4.67,0,0,1,88.9,7.05,4.54,4.54,0,0,1,93.48,11.81Zm-2.71-1a1.83,1.83,0,0,0-1.89-1.38,1.93,1.93,0,0,0-2,1.38Z"/><path class="cls-2" d="M95,15.86V3.79a.42.42,0,0,1,.46-.45h1.82a.41.41,0,0,1,.45.45V15.86a.41.41,0,0,1-.45.45H95.45A.41.41,0,0,1,95,15.86Z"/><path class="cls-2" d="M109.51,11.81a4.54,4.54,0,0,1-4.35,4.75,3.45,3.45,0,0,1-2.71-1.09v4a.41.41,0,0,1-.45.45h-1.82a.41.41,0,0,1-.46-.45V7.76a.41.41,0,0,1,.46-.45H102a.41.41,0,0,1,.45.45v.39a3.43,3.43,0,0,1,2.71-1.1A4.54,4.54,0,0,1,109.51,11.81Zm-2.73,0a2.17,2.17,0,1,0-4.33,0,2.17,2.17,0,1,0,4.33,0Z"/><path class="cls-2" d="M115,12.81a.4.4,0,0,1,.45-.46h2a.44.44,0,0,1,.47.43c.15.65.7,1,1.77,1s1.56-.45,1.56-1c0-.74-.91-1.06-2-1.44-1.8-.61-4.07-1.35-4.07-4.11,0-2.52,2.07-3.78,4.24-3.78s4.16,1.14,4.38,3.75a.41.41,0,0,1-.45.47h-2c-.28,0-.42-.15-.48-.44-.14-.66-.62-1-1.45-1s-1.33.45-1.33,1c0,.76.75,1.12,1.8,1.5,1.82.63,4.29,1.28,4.29,4,0,2.52-2,3.78-4.47,3.78S115.2,15.43,115,12.81Z"/><path class="cls-2" d="M125.52,5.77V4.15A.41.41,0,0,1,126,3.7h1.82a.42.42,0,0,1,.46.45V5.77a.41.41,0,0,1-.46.45H126A.41.41,0,0,1,125.52,5.77Zm0,10.09V7.76a.41.41,0,0,1,.45-.45h1.82a.41.41,0,0,1,.46.45v8.1a.41.41,0,0,1-.46.45H126A.41.41,0,0,1,125.52,15.86Z"/><path class="cls-2" d="M135.16,7.76V9.45a.41.41,0,0,1-.46.45h-1v6a.41.41,0,0,1-.45.45h-1.82a.41.41,0,0,1-.45-.45v-6h-1a.41.41,0,0,1-.46-.45V7.76a.41.41,0,0,1,.46-.45h1V4.87a.41.41,0,0,1,.45-.45h1.82a.41.41,0,0,1,.45.45V7.31h1A.41.41,0,0,1,135.16,7.76Z"/><path class="cls-2" d="M145.26,11.81c0,.23,0,.45,0,.66a.44.44,0,0,1-.49.42h-6.07a2,2,0,0,0,2.12,1.49,2.21,2.21,0,0,0,1.35-.45.83.83,0,0,1,.56-.23l1.75,0c.33,0,.51.21.36.5a4.17,4.17,0,0,1-4.05,2.38,4.65,4.65,0,0,1-4.95-4.75,4.67,4.67,0,0,1,4.87-4.76A4.55,4.55,0,0,1,145.26,11.81Zm-2.72-1a1.81,1.81,0,0,0-1.88-1.38,1.94,1.94,0,0,0-2,1.38Z"/></svg>