<?xml version="1.0" encoding="utf-8"?>
<!-- Generator: Adobe Illustrator 22.0.1, SVG Export Plug-In . SVG Version: 6.00 Build 0)  -->
<svg version="1.1" id="Layer_1" xmlns="http://www.w3.org/2000/svg" xmlns:xlink="http://www.w3.org/1999/xlink" x="0px" y="0px"
	 width="250.1px" height="71.57px" viewBox="0 0 250.1 71.57" enable-background="new 0 0 250.1 71.57" xml:space="preserve">
<g>
	<path fill-rule="evenodd" clip-rule="evenodd" d="M43.15,57.88c0,0.66,0.48,1.2,1.1,1.3l-0.36,2.48c-0.03,0.11-0.04,0.22-0.04,0.34
		c0,0.06,0.01,0.11,0.02,0.16c-0.64-0.08-1.15-0.63-1.15-1.3c0-0.12,0.01-0.23,0.04-0.34l0.39-2.7
		C43.15,57.84,43.15,57.86,43.15,57.88 M44.37,49.08l-0.03,0.32c-0.03,0.11-0.04,0.23-0.04,0.34c0,0.67,0.5,1.22,1.15,1.3
		c-0.01-0.05-0.02-0.11-0.02-0.16c0-0.12,0.01-0.23,0.04-0.34l0.03-0.32c0-0.82-0.52-1.51-1.25-1.77
		C44.33,48.64,44.37,48.86,44.37,49.08 M43.81,53.9l-41.07,1.6v1.18l40.9-1.6L43.81,53.9 M42.54,62.96l-39.8,4.48v1.26l39.62-4.45
		L42.54,62.96 M77.16,47.73V55c-1.95-0.68-4.32-1.08-6.88-1.08c-9.18,0-14.62,6.11-25.82,5.28c-0.06,0-0.11-0.01-0.17-0.02
		c0.08,0.65,0.63,1.15,1.3,1.15c11.2,0.83,16.64-5.28,25.82-5.28c2.56,0,4.93,0.4,6.88,1.08v-8.06
		C77.93,47.95,77.55,47.84,77.16,47.73 M77.16,66.22c-1.95-0.68-4.32-1.08-6.88-1.08c-9.18,0-15.44,6.03-26.65,5.2
		c-0.22,0-0.43-0.04-0.63-0.12c0.26,0.73,0.95,1.26,1.76,1.26c11.2,0.83,17.47-5.2,26.65-5.2c2.56,0,4.93,0.4,6.88,1.08v-8.24
		c-0.36-0.13-0.74-0.24-1.13-0.34V66.22"/>
	<path fill-rule="evenodd" clip-rule="evenodd" fill="#FFBD00" d="M77.16,55c-1.95-0.68-4.32-1.08-6.88-1.08
		c-9.18,0-14.62,6.11-25.82,5.28c-0.72,0-1.32-0.59-1.32-1.32c0-0.12,0.01-0.23,0.04-0.34l-0.43,2.98
		c-0.03,0.11-0.04,0.23-0.04,0.34c0,0.73,0.59,1.32,1.32,1.32c11.2,0.83,17.07-5.28,26.25-5.28c2.56,0,4.93,0.4,6.88,1.08v8.24
		c-1.95-0.68-4.32-1.08-6.88-1.08c-9.18,0-15.44,6.03-26.65,5.2c-1.03,0-1.88-0.84-1.88-1.89c0-0.11,0.01-0.22,0.03-0.33l0.74-5.17
		l-40.93,4.6V59.2l41.87-3.05l0.33-2.24l-42.2,1.65v-8.36h40.91c1.03,0,1.86,0.84,1.86,1.89l-0.04,0.32
		c-0.03,0.11-0.04,0.22-0.04,0.34c0,0.73,0.59,1.32,1.32,1.32c11.2,0.83,15.5-5.2,24.68-5.2c2.56,0,4.93,0.4,6.88,1.08V55"/>
	<path fill-rule="evenodd" clip-rule="evenodd" d="M45.15,43.68l3.82-27.43h8.83l3.26,14.41h0.22c0.16-1.2,0.31-2.47,0.6-3.64
		l2.66-10.77h8.74l3.88,27.43h-8.3L67.7,28.66h-0.16c-0.16,0.91-0.31,1.86-0.56,2.73l-3.41,12.3h-5.01l-3.07-11.61
		c-0.25-1.16-0.47-2.26-0.53-3.42h-0.28c-0.06,1.09-0.12,2.22-0.22,3.31l-1,11.72H45.15 M30.41,16.25c-0.39,0-14.34,0-14.34,0
		c-0.18,0-0.18,0.04-0.18,0.27v1.33c0,0.19,0.03,0.23,0.24,0.23c2.69,0.15,2.93,0.84,2.93,3.56v10.51c-0.03,2.99-0.27,5.7-1.96,7.72
		c-1.15,1.36-2.69,2.02-4.26,2.02c-2.87,0-4.32-2.25-4.8-3.34c-0.69-1.55-0.79-3.03-0.87-4.62L7.11,30.8v-8.76
		c0-2.83-0.13-3.84,2.29-3.84c0.33,0,0.39,0,0.42-0.27v-1.47c0-0.23-0.12-0.27-0.21-0.27c-1.69,0.04-8.56,0-9.25,0
		c-0.3,0-0.3,0.16-0.3,0.43v1.32c0.03,0.23,0.03,0.27,0.18,0.27c2.17,0,2.43,0.78,2.43,3.57v12.14c0.03,2.75,0.15,5.82,2.48,8.26
		c1.87,1.94,4.32,2.48,6.25,2.48c4.32,0,6.43-2.25,7.1-3.06c2.45-2.95,2.45-6.75,2.47-9.31V21.14c0-1.46,0.17-2.53,0.95-2.53
		c1.33,0,1.66,2.29,2.29,4.63c0.11,0.54,4.46,17.65,5.06,20.06c0.06,0.27,0.08,0.39,0.28,0.39h2.08c0.23,0,0.25-0.04,0.34-0.27
		c0.51-2.13,0.73-3.07,1.47-5.9c2.09-8.26,2.32-9.19,3.25-13.27c0.73,3.3,1.67,7.64,2.69,11.41c0.96,3.57,1.21,4.62,1.84,7.68
		c0.11,0.27,0.14,0.35,0.37,0.35h1.72c0.25,0,0.34,0,0.4-0.31c0.19-1.38,0.75-5.24,0.75-5.24l-5.9-21.71
		c-0.08-0.23-0.41-0.16-1.15-0.16c-0.14,0-0.17,0-0.28,0.12c-0.82,2.91-3.15,12.81-5.09,20.33l-3.28-13.77
		c-0.51-2.05-0.62-2.56-0.62-3.18c0-1.16,0.82-1.44,1.58-1.47c0.06,0,0.87-0.04,0.93-0.08c0.03-0.04,0.06-0.15,0.06-0.27V16.6
		C30.69,16.37,30.66,16.25,30.41,16.25 M49.04,0.98c0.01,0.08,0.01,0.09,0.07,0.09c1.03,0,1.14,0.27,1.14,1.25v4.2
		c0.01,0.96,0.06,2.03,0.98,2.88c0.74,0.68,1.71,0.87,2.48,0.87c1.71,0,2.55-0.79,2.82-1.07c0.97-1.03,0.97-2.35,0.98-3.25V2.06
		c0-0.81,0.22-0.96,1.13-1c0.1,0,0.11-0.01,0.12-0.12V0.45c-0.01-0.07-0.01-0.08-0.1-0.08c-0.55,0-1.11,0.03-1.67,0.03
		c-0.23,0-1.22-0.03-1.43-0.03c-0.07,0-0.07,0.01-0.07,0.1v0.49c0,0.07,0.01,0.08,0.1,0.08c1.07,0.05,1.16,0.26,1.16,1.2V5.9
		c-0.01,1.04-0.11,1.99-0.78,2.69c-0.46,0.47-1.07,0.7-1.69,0.7c-1.14,0-1.71-0.79-1.91-1.16c-0.28-0.54-0.31-1.06-0.35-1.61
		l-0.02-1.1V2.41c0-0.99,0.04-1.34,0.99-1.34c0.13,0,0.16,0,0.17-0.09V0.46c0-0.08-0.05-0.1-0.08-0.1
		c-0.67,0.01-1.33,0.04-1.99,0.04c-0.3,0-1.67-0.04-1.94-0.04c-0.12,0-0.12,0.05-0.12,0.15V0.98 M68.74,2.06
		c-0.02-0.85,0.25-0.99,1.02-1c0.12,0,0.13-0.01,0.14-0.15V0.5c0-0.09,0-0.15-0.11-0.15c-0.23,0.01-1.22,0.04-1.43,0.04
		c-0.18,0-0.95-0.03-1.41-0.04c-0.08,0-0.1,0.04-0.1,0.15v0.46c0.01,0.1,0.02,0.12,0.11,0.12c1.02,0,1.1,0.3,1.1,1.39l-0.01,4.26
		l-4.77-6.17c-0.12-0.14-0.19-0.22-0.44-0.22c-0.24,0-1.32,0.04-1.53,0.04c-0.28,0-0.55-0.01-0.83-0.01
		c-0.08,0.03-0.11,0.04-0.11,0.14v0.36c0,0.1,0.01,0.11,0.1,0.11c0.56,0.03,0.78,0.2,1.13,0.51l-0.14,6.21
		c-0.02,0.92-0.14,1.45-1.09,1.52c-0.13,0.01-0.13,0.07-0.13,0.54c0.01,0.12,0.02,0.15,0.1,0.15c0.48-0.01,0.96-0.01,1.44-0.03
		c0.48,0,0.97,0.01,1.46,0.03c0.11,0,0.11-0.05,0.12-0.12V9.37c-0.01-0.14-0.03-0.15-0.12-0.15c-0.97-0.04-1.07-0.66-1.05-1.42
		l0.12-5.33l5.8,7.44c0.08,0.11,0.13,0.11,0.51,0.11C68.69,10,68.74,10,68.74,9.85V2.06 M76.42,9.35c-0.01-0.08-0.01-0.09-0.1-0.09
		c-0.5-0.04-0.76-0.05-0.91-0.28c-0.17-0.2-0.17-0.47-0.18-0.91V2.13c0-1.02,0.38-1.03,1.05-1.07c0.11,0,0.12-0.01,0.15-0.15
		c0-0.42,0-0.47-0.04-0.5c-0.01-0.03-0.05-0.04-0.08-0.04c-0.6,0.01-1.5,0.03-1.87,0.03c-0.69,0-1.38-0.01-2.06-0.03
		c-0.07,0-0.1,0.01-0.1,0.08v0.5c0,0.1,0.01,0.11,0.11,0.12c0.53,0.04,0.73,0.05,0.91,0.26c0.16,0.18,0.16,0.39,0.17,0.81v5.64
		c-0.01,1.06-0.04,1.46-1.08,1.46c-0.11,0-0.12,0.01-0.12,0.12v0.45c0.01,0.1,0.02,0.11,0.07,0.11h0.02
		c0.65-0.01,1.28-0.03,1.92-0.03c0.68,0,1.35,0.01,2.02,0.03h0.04c0.06,0,0.07-0.01,0.07-0.09V9.35 M81.39,1.86
		c-0.02-0.09-0.05-0.19-0.05-0.3c0-0.53,0.5-0.53,0.79-0.53c0.11,0,0.12,0,0.15-0.14V0.46c-0.02-0.09-0.04-0.09-0.13-0.09
		c-0.62,0-1.48,0.03-2,0.03c-0.59,0-1.18-0.01-1.76-0.03c-0.08,0-0.08,0.05-0.1,0.49C78.3,0.95,78.31,0.96,78.4,1
		c0.83,0.11,0.92,0.38,1.48,2c0.91,2.6,1.21,3.45,2.37,6.79c0.05,0.09,0.08,0.12,0.14,0.12h0.73c0.08,0,0.11-0.03,0.14-0.12
		c0.96-2.75,1.22-3.48,2.49-7c0.5-1.46,0.74-1.69,1.62-1.76c0.1,0,0.11-0.03,0.12-0.09V0.5c0-0.13-0.07-0.13-0.12-0.13
		c-0.23-0.01-1.26,0.01-1.47,0.01c-0.49,0-0.97-0.01-1.46-0.01c-0.08,0-0.1,0.03-0.11,0.13v0.41c0.02,0.12,0.04,0.13,0.16,0.15
		c0.35,0.03,0.8,0.07,0.8,0.55c0,0.23-0.08,0.56-0.29,1.22c-0.22,0.7-0.36,1.11-1.71,4.87L81.39,1.86 M96.17,2.83
		c0.05-0.01,0.07-0.01,0.07-0.07c0-0.12-0.18-2.27-0.22-2.33c-0.06-0.07-1.34-0.1-1.55-0.1c-0.24,0-0.89,0.01-1.52,0.04
		c-0.65,0.01-1.27,0.04-1.49,0.04c-0.54,0-1.01-0.01-1.99-0.05h-0.02c-0.06,0-0.06,0.03-0.06,0.1v0.47c0,0.1,0.02,0.11,0.29,0.12
		c0.8,0.07,0.87,0.26,0.9,1.39v5.67c-0.04,0.92-0.17,1.1-1.07,1.12c-0.1,0-0.12,0.01-0.13,0.12v0.42c0.01,0.12,0.02,0.14,0.12,0.14
		c0.95-0.01,1.9-0.04,2.85-0.04c1.38,0,2.76,0.03,4.14,0.04c0.07,0,0.07-0.04,0.07-0.12c0.05-1.1,0.06-1.33,0.14-2.6l0.01-0.05
		c0-0.05-0.04-0.07-0.11-0.07c-0.06,0-0.41,0-0.43,0.01c-0.02,0.03-0.04,0.05-0.05,0.08c-0.46,1.71-0.68,2.16-2.12,2.16
		c-1.48,0-1.62-0.64-1.66-1.62V5.17c0.68,0,1.27-0.01,1.57,0.87c0.1,0.28,0.08,0.51,0.11,0.72c0.01,0.11,0.02,0.12,0.11,0.14h0.38
		c0.1,0,0.1-0.03,0.1-0.12C94.61,6.15,94.6,5.52,94.6,4.9c0-0.3,0.02-1.6,0.02-1.85c0-0.1-0.01-0.1-0.08-0.1h-0.36
		c-0.1,0.01-0.11,0.03-0.12,0.11c-0.15,1.5-0.78,1.54-1.71,1.54V1.07C92.85,1.03,93.21,1,93.66,1c1.45,0,1.71,0.34,1.94,1.73
		c0.01,0.08,0.02,0.09,0.1,0.09H96.17 M102.17,1.07v3.88c0.56-0.01,1-0.01,1.46-0.24c0.59-0.3,0.87-0.99,0.87-1.68
		c0-0.49-0.1-1.06-0.43-1.45C103.66,1.08,103.18,1.07,102.17,1.07 M99.21,0.42c0.02-0.07,0.04-0.07,0.1-0.07
		c0.55,0,1.44,0.04,2,0.04c0.31,0,1.81-0.04,2.16-0.04c0.8,0,1.56,0.07,2.18,0.64c0.35,0.34,0.8,0.99,0.8,1.95
		c0,0.61-0.2,1.91-1.94,2.39c1.14,1.42,1.44,1.81,2.47,3.26c0.44,0.56,0.55,0.61,1.25,0.66c0.11,0.01,0.13,0.01,0.14,0.12v0.45
		c-0.01,0.07-0.01,0.12-0.08,0.12c-0.47-0.03-0.94-0.05-1.4-0.05c-0.36,0-0.72,0.01-1.08,0.03c-0.15,0-0.18-0.03-0.25-0.12
		l-2.35-3.49c-0.37-0.57-0.48-0.75-1.03-0.76v2.9c0,0.57,0.25,0.78,1.03,0.81c0.12,0,0.13,0.01,0.14,0.14v0.43
		c-0.02,0.07-0.02,0.09-0.12,0.09c-0.29,0-1.7-0.03-2.03-0.03c-0.62,0-1.26,0.01-1.88,0.03c-0.08,0-0.1,0-0.12-0.08V9.38
		c0.01-0.12,0.02-0.14,0.12-0.14c0.73-0.07,1.07-0.19,1.07-1.02V1.94c0-0.5-0.01-0.85-1.09-0.85c-0.07,0-0.07-0.03-0.08-0.11V0.42z
		 M110.23,6.86c-0.04,0-0.1,0.04-0.1,0.11c0,0.22,0.02,1.14,0.02,1.33c0,0.24-0.04,1.31-0.04,1.54c0,0.07,0.02,0.07,0.08,0.08
		c0.14,0,0.41,0,0.43-0.03c0.01-0.01,0.02-0.04,0.02-0.07l0.07-0.53c0.41,0.32,1.24,0.97,2.42,0.97c1.47,0,2.83-1.27,2.83-3.11
		c0-1.88-1.41-2.72-2.7-3.42c-0.55-0.3-1.48-0.81-1.48-1.77c0-0.62,0.51-1.23,1.21-1.23c0.95,0,1.65,0.96,1.75,2.03
		c0.02,0.19,0.04,0.28,0.12,0.28h0.41c0.04,0,0.1-0.01,0.1-0.11c0-0.2-0.04-1.1-0.04-1.27c0-0.43,0.01-0.85,0.02-1.27
		c0-0.05-0.01-0.07-0.07-0.07c-0.05,0-0.37,0-0.38,0.01c-0.01,0.01-0.01,0.03-0.02,0.05l-0.13,0.47c-0.44-0.39-1.04-0.84-1.89-0.84
		c-1.61,0-2.43,1.45-2.43,2.81c0,1.84,1.43,2.69,2.73,3.48c0.61,0.37,1.37,0.83,1.37,1.67c0,1.08-0.95,1.6-1.64,1.6
		c-1.06,0-1.99-1-2.15-2.45c-0.02-0.22-0.06-0.27-0.14-0.27H110.23 M122.93,9.35c-0.01-0.08-0.01-0.09-0.1-0.09
		c-0.5-0.04-0.76-0.05-0.91-0.28c-0.17-0.2-0.17-0.47-0.18-0.91V2.13c0-1.02,0.38-1.03,1.06-1.07c0.11,0,0.12-0.01,0.14-0.15
		c0-0.42,0-0.47-0.04-0.5c-0.01-0.03-0.05-0.04-0.08-0.04c-0.6,0.01-1.5,0.03-1.87,0.03c-0.69,0-1.38-0.01-2.06-0.03
		c-0.07,0-0.1,0.01-0.1,0.08v0.5c0,0.1,0.01,0.11,0.11,0.12c0.53,0.04,0.73,0.05,0.91,0.26c0.16,0.18,0.16,0.39,0.17,0.81v5.64
		c-0.01,1.06-0.04,1.46-1.08,1.46c-0.11,0-0.12,0.01-0.12,0.12v0.45c0.01,0.1,0.02,0.11,0.07,0.11h0.02
		c0.65-0.01,1.28-0.03,1.92-0.03c0.68,0,1.35,0.01,2.02,0.03h0.04c0.06,0,0.07-0.01,0.07-0.09V9.35 M133.24,1.37V0.58
		c-0.01-0.12-0.02-0.23-0.19-0.22c-1.35,0.01-2.7,0.04-3.94,0.04c-1.36,0-2.71-0.03-4.06-0.04c-0.12,0-0.19,0.12-0.19,0.26v1.03
		c0,0.39,0,0.79-0.01,1.18c0,0.11,0.02,0.12,0.12,0.12h0.35c0.08,0,0.1-0.01,0.11-0.14c0.16-1.72,0.92-1.76,2.73-1.79v7.09
		c-0.02,0.92-0.12,1.06-1.06,1.12c-0.08,0.01-0.1,0.03-0.11,0.11v0.49c0.01,0.07,0.01,0.1,0.06,0.1c0.65,0,1.28-0.04,1.93-0.04
		c0.68,0,1.36,0.01,2.04,0.04h0.05c0.06,0,0.06-0.03,0.06-0.1V9.35c-0.01-0.07-0.02-0.08-0.08-0.08c-0.92-0.09-1.07-0.12-1.07-1.18
		V1.02c1.85,0.04,2.58,0.12,2.72,1.8c0.01,0.12,0.04,0.14,0.11,0.15h0.37c0.1,0,0.1-0.12,0.1-0.14L133.24,1.37 M140.33,0.92
		c0,0.11,0.01,0.12,0.11,0.12c0.42,0.01,0.9,0.03,0.9,0.51c0,0.19-0.08,0.38-0.16,0.54l-1.45,2.84L138.4,2.1
		c-0.08-0.2-0.15-0.39-0.15-0.58c0-0.37,0.31-0.47,0.72-0.47c0.14,0,0.16,0,0.17-0.11V0.49c0-0.09-0.01-0.14-0.12-0.14
		c-0.65,0.01-1.28,0.04-1.93,0.04c-0.71,0-1.4-0.01-2.11-0.04c-0.1,0-0.12,0.01-0.12,0.16v0.41c0,0.09,0.01,0.11,0.1,0.12
		c0.99,0.04,1.15,0.34,2.2,2.63l1.26,2.67v1.92c-0.04,0.87-0.29,0.91-1.23,0.99c-0.1,0.01-0.11,0.03-0.12,0.14V9.8
		c0.01,0.09,0.01,0.12,0.08,0.12h0.02c0.74-0.03,1.49-0.05,2.23-0.05c0.68,0,1.38,0.03,2.06,0.05c0.08,0,0.1-0.04,0.11-0.09v-0.5
		c-0.01-0.05-0.02-0.07-0.08-0.07c-0.94-0.07-1.2-0.09-1.27-0.81V5.48l1.14-2.21c0.9-1.71,1.07-2.03,1.62-2.18
		c0.14-0.04,0.3-0.05,0.48-0.07c0.08,0,0.11-0.01,0.11-0.12V0.5c0-0.12-0.04-0.15-0.13-0.15c-0.48,0.03-0.97,0.04-1.45,0.04
		c-0.52,0-1.03-0.03-1.55-0.04c-0.07,0-0.08,0.03-0.1,0.09V0.92 M148.2,5c-0.19,0.02-1.04,0.21-1.04,2.23
		c0,0.78,0.23,2.11,1.05,2.11c0.75,0,1.1-1.09,1.1-2.19C149.31,5.86,148.85,4.93,148.2,5 M150.84,7.2c0,1.7-1.25,2.82-2.62,2.82
		c-1.33,0-2.6-1.06-2.6-2.82c0-1.73,1.16-2.84,2.56-2.86C149.48,4.32,150.84,5.31,150.84,7.2z M152.24,4.48h-0.64
		c-0.08,0-0.09,0.01-0.1,0.1v0.46c0.02,0.06,0.03,0.06,0.1,0.08h0.64v3.16c-0.01,0.73-0.08,0.97-0.78,1.03
		c-0.05,0.02-0.07,0.04-0.08,0.1v0.43c0.01,0.05,0.02,0.09,0.1,0.09c0.55-0.01,1.1-0.03,1.64-0.03c0.48,0.01,0.97,0.01,1.45,0.03
		c0.06,0,0.07-0.04,0.08-0.06V9.39c0-0.06-0.01-0.08-0.07-0.09c-0.73-0.03-0.87-0.09-0.88-1V5.12h1.01c0.05,0,0.05-0.01,0.08-0.06
		V4.58c0-0.07,0-0.09-0.09-0.1h-1l0.02-1.9c0.03-0.4,0.08-0.92,0.44-1.13c0.06-0.04,0.12-0.05,0.19-0.05c0.29,0,0.4,0.27,0.48,0.46
		c0.06,0.14,0.24,0.59,0.7,0.59c0.18,0,0.52-0.15,0.52-0.63c0-0.46-0.38-1-1.46-1c-0.71,0-1.44,0.24-1.92,0.83
		c-0.41,0.51-0.42,1.14-0.43,1.59L152.24,4.48 M168.32,6.58c-0.12-0.38-0.24-0.77-0.37-1.16l-1.7-5.26
		c-0.04-0.08-0.06-0.08-0.37-0.08c-0.06,0-0.07,0-0.12,0.04c-0.35,1.02-0.44,1.31-0.74,2.35c-0.66,2.22-0.71,2.39-1.53,5.02
		l-1.39-4.8c-0.22-0.72-0.26-0.89-0.26-1.11c0-0.41,0.35-0.5,0.67-0.51c0.02,0,0.37-0.01,0.4-0.03c0.01-0.01,0.02-0.05,0.02-0.1
		V0.47c0-0.08-0.01-0.12-0.12-0.12c-0.3,0-1.62,0.03-1.88,0.03c-0.71,0-1.4-0.01-2.11-0.03c-0.13,0-0.13,0.04-0.14,0.16v0.43
		c0.02,0.08,0.04,0.09,0.1,0.09c0.95,0.07,1.18,0.69,1.52,1.75c0.05,0.19,1.89,6.16,2.15,7c0.02,0.09,0.04,0.14,0.12,0.14h0.79
		c0.1,0,0.11-0.01,0.14-0.1c0.22-0.74,0.31-1.07,0.62-2.06c0.89-2.88,0.98-3.21,1.38-4.63c0.31,1.15,0.8,2.67,1.23,3.98
		c0.41,1.25,0.52,1.61,0.78,2.68c0.05,0.1,0.06,0.12,0.16,0.12h0.73c0.11,0,0.14,0,0.17-0.11c0.1-0.45,0.19-0.84,0.4-1.53
		c0.13-0.49,1.49-4.78,1.77-5.58c0.43-1.22,0.71-1.54,1.57-1.67c0.06-0.01,0.07-0.03,0.07-0.09V0.46c0-0.08-0.01-0.1-0.07-0.1
		c-0.26,0-1.4,0.03-1.64,0.03c-0.22,0-1.2-0.03-1.39-0.03c-0.07,0-0.08,0.03-0.08,0.14v0.43c0.01,0.11,0.02,0.12,0.11,0.12
		c0.46,0,0.9,0,0.9,0.62c0,0.54-0.42,1.88-0.61,2.5l-0.62,1.92l-0.4,1.26L168.32,6.58 M178.2,9.35c-0.01-0.08-0.01-0.09-0.1-0.09
		c-0.5-0.04-0.76-0.05-0.91-0.28c-0.17-0.2-0.17-0.47-0.18-0.91V2.13c0-1.02,0.38-1.03,1.05-1.07c0.11,0,0.12-0.01,0.14-0.15
		c0-0.42,0-0.47-0.04-0.5c-0.01-0.03-0.05-0.04-0.08-0.04c-0.6,0.01-1.5,0.03-1.87,0.03c-0.69,0-1.38-0.01-2.06-0.03
		c-0.07,0-0.1,0.01-0.1,0.08v0.5c0,0.1,0.01,0.11,0.11,0.12c0.53,0.04,0.73,0.05,0.91,0.26c0.16,0.18,0.16,0.39,0.17,0.81v5.64
		c-0.01,1.06-0.04,1.46-1.08,1.46c-0.11,0-0.12,0.01-0.12,0.12v0.45c0.01,0.1,0.02,0.11,0.07,0.11h0.03
		c0.65-0.01,1.28-0.03,1.92-0.03c0.68,0,1.35,0.01,2.02,0.03h0.04c0.06,0,0.07-0.01,0.07-0.09V9.35 M181.15,6.86
		c-0.04,0-0.1,0.04-0.1,0.11c0,0.22,0.02,1.14,0.02,1.33c0,0.24-0.04,1.31-0.04,1.54c0,0.07,0.03,0.07,0.08,0.08
		c0.14,0,0.41,0,0.43-0.03c0.01-0.01,0.02-0.04,0.02-0.07l0.07-0.53c0.41,0.32,1.23,0.97,2.42,0.97c1.47,0,2.83-1.27,2.83-3.11
		c0-1.88-1.41-2.72-2.7-3.42c-0.55-0.3-1.48-0.81-1.48-1.77c0-0.62,0.51-1.23,1.21-1.23c0.95,0,1.65,0.96,1.75,2.03
		c0.02,0.19,0.04,0.28,0.12,0.28h0.41c0.04,0,0.1-0.01,0.1-0.11c0-0.2-0.04-1.1-0.04-1.27c0-0.43,0.01-0.85,0.02-1.27
		c0-0.05-0.01-0.07-0.07-0.07c-0.05,0-0.37,0-0.38,0.01c-0.01,0.01-0.01,0.03-0.02,0.05l-0.13,0.47c-0.44-0.39-1.04-0.84-1.89-0.84
		c-1.61,0-2.43,1.45-2.43,2.81c0,1.84,1.43,2.69,2.73,3.48c0.61,0.37,1.37,0.83,1.37,1.67c0,1.08-0.95,1.6-1.64,1.6
		c-1.06,0-1.99-1-2.15-2.45c-0.02-0.22-0.06-0.27-0.14-0.27H181.15 M196.97,9.69c0.04,0.11,0.05,0.12,0.14,0.14
		c0.37,0,0.42,0,0.42-0.14c-0.01-0.58-0.01-1.18-0.01-1.76c0-0.51,0-1.02,0.01-1.53c0-0.12-0.05-0.12-0.44-0.12
		c-0.13,0.01-0.14,0.03-0.15,0.14c-0.06,0.5-0.19,1.61-0.98,2.37c-0.37,0.35-0.79,0.6-1.43,0.6c-1.29,0-2.79-1.38-2.79-4.36
		c0-2.56,1.08-4.24,2.55-4.24c0.74,0,2.23,0.45,2.65,2.84c0.02,0.07,0.04,0.08,0.11,0.08h0.37c0.07,0,0.11,0,0.11-0.08
		c0-0.07-0.07-0.69-0.08-0.83c-0.1-0.99-0.12-1.64-0.13-2.44c-0.01-0.11-0.02-0.14-0.1-0.14c-0.36,0-0.39,0-0.46,0.11l-0.16,0.47
		c-0.53-0.29-1.43-0.77-2.73-0.77c-0.29,0-0.96,0-1.85,0.49c-1.46,0.79-2.39,2.48-2.39,4.59c0,1.18,0.28,2.67,1.32,3.83
		c1.14,1.25,2.36,1.31,2.92,1.31c1.22,0,1.92-0.37,2.94-1.04L196.97,9.69 M205.18,0.83c-1.4,0.03-2.57,1.61-2.57,4.32
		c0,2.33,0.94,4.29,2.59,4.29c1.11,0,2.58-1.07,2.58-4.44c0-1.14-0.32-2.35-0.78-3.06C206.74,1.53,206.11,0.8,205.18,0.83
		 M209.92,5.12c0,3.15-2.19,5.13-4.71,5.13c-3.01,0-4.72-2.42-4.72-5.13c0-3.19,2.37-5.09,4.58-5.1
		C208.01,0,209.92,2.23,209.92,5.12z M220.74,2.06c-0.02-0.85,0.25-0.99,1.02-1c0.12,0,0.13-0.01,0.14-0.15V0.5
		c0-0.09,0-0.15-0.11-0.15c-0.23,0.01-1.22,0.04-1.43,0.04c-0.18,0-0.95-0.03-1.41-0.04c-0.08,0-0.1,0.04-0.1,0.15v0.46
		c0.01,0.1,0.02,0.12,0.11,0.12c1.02,0,1.1,0.3,1.1,1.39l-0.01,4.26l-4.77-6.17c-0.12-0.14-0.19-0.22-0.44-0.22
		c-0.24,0-1.32,0.04-1.53,0.04c-0.28,0-0.55-0.01-0.83-0.01c-0.08,0.03-0.11,0.04-0.11,0.14v0.36c0,0.1,0.01,0.11,0.1,0.11
		c0.56,0.03,0.78,0.2,1.13,0.51l-0.14,6.21c-0.02,0.92-0.14,1.45-1.09,1.52c-0.13,0.01-0.13,0.07-0.13,0.54
		c0.01,0.12,0.02,0.15,0.1,0.15c0.48-0.01,0.96-0.01,1.44-0.03c0.48,0,0.97,0.01,1.46,0.03c0.11,0,0.11-0.05,0.12-0.12V9.37
		c-0.01-0.14-0.02-0.15-0.12-0.15c-0.97-0.04-1.07-0.66-1.05-1.42l0.12-5.33l5.8,7.44c0.08,0.11,0.13,0.11,0.52,0.11
		c0.08-0.01,0.13-0.01,0.13-0.16V2.06 M224.82,6.86c-0.04,0-0.1,0.04-0.1,0.11c0,0.22,0.02,1.14,0.02,1.33
		c0,0.24-0.04,1.31-0.04,1.54c0,0.07,0.02,0.07,0.08,0.08c0.14,0,0.41,0,0.43-0.03c0.01-0.01,0.02-0.04,0.02-0.07l0.07-0.53
		c0.41,0.32,1.24,0.97,2.42,0.97c1.47,0,2.83-1.27,2.83-3.11c0-1.88-1.41-2.72-2.7-3.42c-0.55-0.3-1.49-0.81-1.49-1.77
		c0-0.62,0.52-1.23,1.21-1.23c0.95,0,1.65,0.96,1.75,2.03c0.02,0.19,0.04,0.28,0.12,0.28h0.41c0.04,0,0.1-0.01,0.1-0.11
		c0-0.2-0.04-1.1-0.04-1.27c0-0.43,0.01-0.85,0.02-1.27c0-0.05-0.01-0.07-0.07-0.07c-0.05,0-0.37,0-0.38,0.01
		c-0.01,0.01-0.01,0.03-0.02,0.05l-0.13,0.47c-0.44-0.39-1.04-0.84-1.89-0.84c-1.61,0-2.43,1.45-2.43,2.81
		c0,1.84,1.43,2.69,2.73,3.48c0.61,0.37,1.37,0.83,1.37,1.67c0,1.08-0.95,1.6-1.64,1.6c-1.06,0-1.99-1-2.15-2.45
		c-0.02-0.22-0.06-0.27-0.14-0.27H224.82 M237.59,9.35c-0.01-0.08-0.01-0.09-0.1-0.09c-0.5-0.04-0.76-0.05-0.91-0.28
		c-0.17-0.2-0.17-0.47-0.18-0.91V2.13c0-1.02,0.38-1.03,1.05-1.07c0.11,0,0.12-0.01,0.14-0.15c0-0.42,0-0.47-0.04-0.5
		c-0.01-0.03-0.05-0.04-0.08-0.04c-0.6,0.01-1.5,0.03-1.87,0.03c-0.69,0-1.38-0.01-2.06-0.03c-0.07,0-0.1,0.01-0.1,0.08v0.5
		c0,0.1,0.01,0.11,0.11,0.12c0.53,0.04,0.73,0.05,0.91,0.26c0.16,0.18,0.16,0.39,0.17,0.81v5.64c-0.01,1.06-0.04,1.46-1.08,1.46
		c-0.11,0-0.12,0.01-0.12,0.12v0.45c0.01,0.1,0.02,0.11,0.07,0.11h0.02c0.65-0.01,1.28-0.03,1.92-0.03c0.68,0,1.35,0.01,2.02,0.03
		h0.04c0.06,0,0.07-0.01,0.07-0.09V9.35 M248.56,2.06c-0.02-0.85,0.25-0.99,1.02-1c0.12,0,0.13-0.01,0.14-0.15V0.5
		c0-0.09,0-0.15-0.11-0.15c-0.23,0.01-1.22,0.04-1.43,0.04c-0.18,0-0.95-0.03-1.41-0.04c-0.08,0-0.1,0.04-0.1,0.15v0.46
		c0.01,0.1,0.02,0.12,0.11,0.12c1.02,0,1.1,0.3,1.1,1.39l-0.01,4.26l-4.77-6.17c-0.12-0.14-0.19-0.22-0.44-0.22
		c-0.24,0-1.32,0.04-1.53,0.04c-0.27,0-0.55-0.01-0.83-0.01c-0.08,0.03-0.11,0.04-0.11,0.14v0.36c0,0.1,0.01,0.11,0.09,0.11
		c0.57,0.03,0.78,0.2,1.13,0.51l-0.14,6.21c-0.02,0.92-0.14,1.45-1.09,1.52c-0.13,0.01-0.13,0.07-0.13,0.54
		c0.01,0.12,0.02,0.15,0.1,0.15c0.48-0.01,0.96-0.01,1.44-0.03c0.48,0,0.97,0.01,1.46,0.03c0.11,0,0.11-0.05,0.12-0.12V9.37
		c-0.01-0.14-0.02-0.15-0.12-0.15c-0.97-0.04-1.07-0.66-1.05-1.42l0.12-5.33l5.8,7.44c0.08,0.11,0.13,0.11,0.51,0.11
		c0.08-0.01,0.13-0.01,0.13-0.16V2.06 M79.38,43.68h8.83V19.2h-8.83V43.68z M91,43.68h16.25v-7.86h-7.41V19.2H91V43.68 M104.05,19.2
		l8.51,24.48h7.51l2.45-9.61c0.29-1.2,0.35-2.43,0.45-3.7h0.29l2.77,13.31h7.71l8.57-24.48h-9.19l-2.45,10.29
		c-0.32,1.4-0.48,2.89-0.61,4.32h-0.19l-3.32-14.61h-6.77l-2.58,10.1c-0.39,1.46-0.58,3.02-0.74,4.51h-0.19L113.2,19.2H104.05
		 M149.16,34.82h3.55l-1.03-4.32c-0.26-1.04-0.42-2.11-0.58-3.15h-0.32L149.16,34.82 M146.87,43.68h-9.35l8.45-24.48h9.77
		l8.67,24.48h-9.35l-0.81-3.05h-6.67L146.87,43.68z M177.52,19.2v13.64c0,1.92-0.06,3.6-2.42,3.6c-2.35,0-2.42-1.69-2.42-3.6V19.2
		h-8.83v14.48c0,7.14,4.45,10.39,11.25,10.39c6.8,0,11.25-3.25,11.25-10.39V19.2H177.52 M189.02,43.68h8.61l-0.19-10.26h0.19
		c0.19,1.01,0.97,1.92,1.48,2.86l4.19,7.4h10.25l-8.41-12.56l7.61-11.92h-9.64l-4.25,7.86c-0.48,0.88-1.03,1.75-1.22,2.76h-0.19
		l0.19-10.62h-8.61V43.68 M214.63,43.68h16.6V37h-7.71v-2.4h6.8v-6.36h-6.8v-2.34h7.45V19.2h-16.34V43.68 M233.45,43.68h16.6V37
		h-7.7v-2.4h6.8v-6.36h-6.8v-2.34h7.44V19.2h-16.34V43.68"/>
</g>
</svg>
